<svg width="96" height="96" viewBox="0 0 96 96" fill="none" xmlns="http://www.w3.org/2000/svg">
  <rect width="96" height="96" fill="none"/>
  <circle cx="48" cy="48" r="30" stroke="#F6C000" stroke-width="4" fill="none"/>
  <path d="M48 28C55.5 32.2 60.8 33.8 66 35.1V49.8C66 61.7 58.7 70.5 48 75C37.3 70.5 30 61.7 30 49.8V35.1C35.2 33.8 40.5 32.2 48 28Z" stroke="#F6C000" stroke-width="3" fill="none"/>
  <path d="M48 38.5L50.4 43.8L56.2 44.3L51.8 48.2L53.2 54L48 51.1L42.8 54L44.2 48.2L39.8 44.3L45.6 43.8L48 38.5Z" stroke="#F6C000" stroke-width="2" fill="none"/>
  <circle cx="67" cy="69" r="7" fill="#21C45A" stroke="#0E2A3A" stroke-width="3"/>
</svg>
